<svg id="wave" style="transform:rotate(0deg); transition: 0.3s" viewBox="0 0 1440 490" version="1.1" xmlns="http://www.w3.org/2000/svg"><defs><linearGradient id="sw-gradient-0" x1="0" x2="0" y1="1" y2="0"><stop stop-color="rgba(0, 0, 0, 1)" offset="0%"></stop><stop stop-color="rgba(0, 0, 0, 1)" offset="100%"></stop></linearGradient></defs><path style="transform:translate(0, 0px); opacity:1" fill="url(#sw-gradient-0)" d="M0,196L26.7,196C53.3,196,107,196,160,220.5C213.3,245,267,294,320,318.5C373.3,343,427,343,480,310.3C533.3,278,587,212,640,155.2C693.3,98,747,49,800,57.2C853.3,65,907,131,960,147C1013.3,163,1067,131,1120,138.8C1173.3,147,1227,196,1280,187.8C1333.3,180,1387,114,1440,130.7C1493.3,147,1547,245,1600,245C1653.3,245,1707,147,1760,98C1813.3,49,1867,49,1920,81.7C1973.3,114,2027,180,2080,179.7C2133.3,180,2187,114,2240,81.7C2293.3,49,2347,49,2400,89.8C2453.3,131,2507,212,2560,253.2C2613.3,294,2667,294,2720,318.5C2773.3,343,2827,392,2880,383.8C2933.3,376,2987,310,3040,253.2C3093.3,196,3147,147,3200,106.2C3253.3,65,3307,33,3360,73.5C3413.3,114,3467,229,3520,228.7C3573.3,229,3627,114,3680,57.2C3733.3,0,3787,0,3813,0L3840,0L3840,490L3813.3,490C3786.7,490,3733,490,3680,490C3626.7,490,3573,490,3520,490C3466.7,490,3413,490,3360,490C3306.7,490,3253,490,3200,490C3146.7,490,3093,490,3040,490C2986.7,490,2933,490,2880,490C2826.7,490,2773,490,2720,490C2666.7,490,2613,490,2560,490C2506.7,490,2453,490,2400,490C2346.7,490,2293,490,2240,490C2186.7,490,2133,490,2080,490C2026.7,490,1973,490,1920,490C1866.7,490,1813,490,1760,490C1706.7,490,1653,490,1600,490C1546.7,490,1493,490,1440,490C1386.7,490,1333,490,1280,490C1226.7,490,1173,490,1120,490C1066.7,490,1013,490,960,490C906.7,490,853,490,800,490C746.7,490,693,490,640,490C586.7,490,533,490,480,490C426.7,490,373,490,320,490C266.7,490,213,490,160,490C106.7,490,53,490,27,490L0,490Z"></path></svg>